<svg height="512pt" viewBox="-14 0 512 512.00042" width="512pt" xmlns="http://www.w3.org/2000/svg"><path d="m364.101562 110.976562c-.011718 14.273438-9.777343 26.507813-19.035156 38.632813l-165.644531-.039063-40.933594-.011718c-9.375-12.441406-19.132812-24.621094-19.121093-38.582032.007812-20.136718 19.414062-36.210937 29.460937-53.652343 9.746094-16.902344 13.617187-41.84375 31.726563-52.304688 11.984374-6.910156 26.335937-5.269531 40.328124-3.363281 7.167969.984375 14.238282 2.027344 20.847657 2.039062 20.125.023438 43.742187-8.742187 61.1875 1.304688 16.902343 9.734375 21.246093 34.238281 31.703125 52.347656 10.453125 18.109375 29.503906 34.117188 29.480468 53.628906zm0 0" fill="#beccd3"/><path d="m364.101562 110.976562c-.011718 7.375-2.621093 14.207032-6.414062 20.761719-21.753906-14.910156-46.527344-25.742187-73.207031-31.390625-13.785157-2.921875-28.089844-4.464844-42.753907-4.464844-28.371093 0-55.394531 5.757813-79.984374 16.160157-.011719-.140625-.011719-.277344-.011719-.417969.011719-22.046875 21.257812-39.648438 32.253906-58.742188 9.097656-15.769531 13.515625-37.933593 26.894531-51.226562 7.167969.984375 14.242188 2.027344 20.847656 2.039062 20.125.023438 43.746094-8.742187 61.1875 1.304688 16.902344 9.734375 21.246094 34.238281 31.703126 52.347656 10.457031 18.109375 29.507812 34.117188 29.484374 53.628906zm0 0" fill="#dae6ed"/><path d="m447.074219 327.101562v89.050782l-410.691407-.195313v-88.855469c0-113.414062 91.929688-205.34375 205.34375-205.34375 14.664063 0 28.96875 1.539063 42.753907 4.460938 92.890625 19.664062 162.59375 102.128906 162.59375 200.882812zm0 0" fill="#dc4250"/><path d="m447.074219 327.101562v13.28125l-325.195313 40.242188v-53.523438c0-98.753906 69.703125-181.230468 162.605469-200.882812 92.886719 19.664062 162.589844 102.128906 162.589844 200.882812zm0 0" fill="#ef5361"/><path d="m483.457031 381.207031v89.613281c0 22.746094-18.433593 41.179688-41.179687 41.179688h-401.097656c-22.734376 0-41.179688-18.433594-41.179688-41.179688v-89.613281c0-22.734375 18.445312-41.167969 41.179688-41.167969h401.097656c22.746094 0 41.179687 18.433594 41.179687 41.167969zm0 0" fill="#beccd3"/><path d="m483.457031 381.207031v89.613281c0 22.746094-18.433593 41.179688-41.179687 41.179688h-323.484375c-22.742188 0-41.175781-18.433594-41.175781-41.179688v-89.613281c0-22.734375 18.433593-41.167969 41.175781-41.167969h323.484375c22.746094 0 41.179687 18.433594 41.179687 41.167969zm0 0" fill="#dae6ed"/><path d="m284.148438 464.5c-5.417969-6.304688-10.890626-12.816406-16.390626-19.53125 1.480469-.210938 2.960938-.429688 4.4375-.675781 6.097657-1.007813 8.964844-6.457031 5.507813-10.476563-6.109375-7.101562-12.292969-14.523437-18.515625-22.246094 2.011719-.246093 4.015625-.53125 6.011719-.863281 4.699219-.777343 6.90625-4.972656 4.242187-8.070312-7.199218-8.371094-14.535156-17.304688-21.902344-26.800781-2.628906-3.390626-8.980468-3.390626-11.609374 0-7.367188 9.496093-14.703126 18.429687-21.902344 26.800781-2.664063 3.097656-.457032 7.292969 4.242187 8.070312 1.992188.332031 4 .617188 6.007813.863281-6.21875 7.722657-12.402344 15.144532-18.511719 22.246094-3.460937 4.023438-.59375 9.46875 5.507813 10.476563 1.476562.246093 2.953124.464843 4.4375.675781-5.503907 6.714844-10.972657 13.226562-16.394532 19.53125-4.082031 4.742188-.699218 11.167969 6.496094 12.355469 23.679688 3.921875 48.164062 3.921875 71.847656 0 7.191406-1.1875 10.570313-7.613281 6.488282-12.355469zm0 0" fill="#ef5361"/></svg>