<svg height="512pt" viewBox="0 -2 512 511" width="512pt" xmlns="http://www.w3.org/2000/svg"><path d="m497.59375 444.042969v-26.34375c0-74.96875-59.984375-136.90625-134.953125-137.613281-25-.234376-48.449219 6.273437-68.671875 17.796874v-244.757812l-274.730469 67.019531v363.980469" fill="#4f5866"/><path d="m382.75 281.386719c-42.695312 5.96875-78.933594 31.945312-99.433594 68.023437-16.601562 0-24.847656-20.277344-12.84375-31.742187 24.054688-22.972657 56.40625-37.242188 92.171875-37.585938 6.824219-.0625 13.53125.398438 20.105469 1.304688zm0 0" fill="#363f4d"/><path d="m71.011719 76.632812v405.925782l-51.773438-38.515625v-323.898438zm0 0" fill="#363f4d"/><path d="m313.207031 27.273438v66.097656c0 14.78125-11.992187 26.773437-26.785156 26.773437h-259.648437c-14.792969 0-26.773438-11.992187-26.773438-26.773437v-66.097656c0-14.78125 11.980469-26.773438 26.773438-26.773438h259.652343c14.789063 0 26.78125 11.992188 26.78125 26.773438zm0 0" fill="#beccd3"/><path d="m313.207031 27.273438v66.097656c0 14.78125-11.992187 26.773437-26.785156 26.773437h-174.675781c-14.792969 0-26.785156-11.992187-26.785156-26.773437v-66.097656c0-14.78125 11.992187-26.773438 26.785156-26.773438h174.679687c14.789063 0 26.78125 11.992188 26.78125 26.773438zm0 0" fill="#dae6ed"/><path d="m19.238281 196.917969h274.730469v66.203125h-274.730469zm0 0" fill="#ef5361"/><path d="m19.238281 196.917969h49.746094v66.203125h-49.746094zm0 0" fill="#dc4250"/><path d="m182.21875 293.34375h-83.785156c-16.261719 0-29.449219-13.183594-29.449219-29.449219v-67.75c0-16.265625 13.1875-29.449219 29.449219-29.449219h83.785156c16.261719 0 29.445312 13.183594 29.445312 29.449219v67.75c.003907 16.265625-13.183593 29.449219-29.445312 29.449219zm0 0" fill="#ffe66b"/><path d="m84.65625 263.894531v-67.753906c0-16.261719 13.1875-29.445313 29.449219-29.445313h-15.671875c-16.261719 0-29.449219 13.183594-29.449219 29.445313v67.753906c0 16.265625 13.1875 29.449219 29.449219 29.449219h15.671875c-16.261719 0-29.449219-13.183594-29.449219-29.449219zm0 0" fill="#f79e31"/><path d="m101.050781 198.757812h78.550781v62.519532h-78.550781zm0 0" fill="#ef5361"/><path d="m165.136719 198.757812h14.464843v62.519532h-14.464843zm0 0" fill="#dc4250"/><path d="m512 444.042969v64.128906h-303.804688v-4.414063c0-6.96875-2.832031-13.273437-7.394531-17.847656-4.5625-4.578125-10.878906-7.398437-17.851562-7.398437-13.945313 0-25.253907 11.308593-25.253907 25.246093v4.414063h-156.09375v-64.128906zm0 0" fill="#dae6ed"/><path d="m1.601562 444.042969h91.972657v64.128906h-91.972657zm0 0" fill="#beccd3"/></svg>