<svg height="512pt" viewBox="-57 0 512 512.00089" width="512pt" xmlns="http://www.w3.org/2000/svg"><path d="m241.765625 164.410156h-105.691406v-57.824218h70.769531c19.289062 0 34.921875 25.890624 34.921875 57.824218zm0 0" fill="#ffe66b"/><path d="m170.996094 164.410156h-69.839844c0-31.933594 15.632812-57.824218 34.917969-57.824218 19.289062 0 34.921875 25.890624 34.921875 57.824218zm0 0" fill="#f79e31"/><path d="m320.035156 106.585938v57.824218h-94.089844c0-31.933594 22.398438-57.824218 50.039063-57.824218zm0 0" fill="#f79e31"/><path d="m370.078125 164.410156h-100.082031c0-31.933594 22.402344-57.824218 50.042968-57.824218 27.636719 0 50.039063 25.890624 50.039063 57.824218zm0 0" fill="#ffe66b"/><path d="m154.425781 451.167969h-15.429687v49.113281c0 6.472656 5.25 11.71875 11.71875 11.71875h165.496094c6.480468 0 11.71875-5.246094 11.71875-11.71875v-49.113281zm0 0" fill="#beccd3"/><path d="m327.921875 488.296875v11.976563c0 6.472656-5.238281 11.71875-11.71875 11.71875h-122.5625c-6.46875 0-11.71875-5.246094-11.71875-11.71875v-10.589844h130.574219c5.269531 0 10.425781-.472656 15.425781-1.386719zm0 0" fill="#dae6ed"/><path d="m78.417969 418.632812h-13.054688c-4.363281 0-8.625-.433593-12.753906-1.242187-29.992187-5.9375-52.609375-32.386719-52.609375-64.121094v-114.800781c0-10.804688 4.375-20.582031 11.460938-27.667969 7.089843-7.089843 16.867187-11.464843 27.671874-11.464843h9.304688 25.402344v37.59375h-37.890625v116.339843c0 9.917969 4.941406 18.710938 12.488281 24.03125 4.785156 3.390625 10.632812 5.382813 16.925781 5.382813h8.476563v8.246094c0 9.699218 1.609375 19.011718 4.578125 27.703124zm0 0" fill="#beccd3"/><path d="m398.222656 163.382812v228.261719c0 47.335938-38.382812 85.71875-85.722656 85.71875h-158.082031c-37.640625 0-69.625-24.269531-81.136719-58.019531-2.96875-8.6875-4.582031-18.003906-4.582031-27.699219v-228.261719zm0 0" fill="#beccd3"/><path d="m398.222656 163.382812v228.261719c0 47.335938-38.382812 85.71875-85.722656 85.71875h-77.96875c-37.640625 0-69.625-24.269531-81.136719-58.019531-2.96875-8.6875-4.582031-18.003906-4.582031-27.699219v-228.261719zm0 0" fill="#dae6ed"/><path d="m213.109375 86.554688c-4.058594 0-7.386719-3.140626-7.683594-7.125-.664062-.632813-3.363281-2.613282-12.5625-4.765626-8.109375-1.894531-18.5-3.339843-29.496093-4.871093-36.144532-5.03125-77.105469-10.730469-77.105469-38.1875 0-4.160157 1.691406-7.949219 4.886719-10.960938 14.011718-13.191406 59.34375-11.183593 132.15625-6.804687 30.054687 1.804687 61.136718 3.667968 85.652343 3.335937 34.382813-.476562 42.359375-5.261719 44.195313-7.296875.308594-.339844.339844-.414062.257812-.917968-.695312-4.199219 2.148438-8.164063 6.347656-8.855469 4.199219-.695313 8.160157 2.148437 8.851563 6.34375.847656 5.136719-.539063 9.890625-4.015625 13.746093-14.011719 15.542969-63.074219 13.777344-142.214844 9.019532-29.167968-1.75-59.335937-3.558594-82.339844-3.234375-31.535156.449219-37.414062 4.859375-38.367187 5.898437.476563 13.839844 37.058594 18.929688 63.816406 22.65625 30.910157 4.300782 55.324219 7.695313 55.324219 24.316406 0 4.253907-3.449219 7.703126-7.703125 7.703126zm0 0" fill="#dae6ed"/><path d="m349.191406 384.113281c-10.476562-12.179687-21.054687-24.765625-31.6875-37.753906 2.863282-.402344 5.722656-.828125 8.574219-1.300781 11.789063-1.949219 17.335937-12.480469 10.644531-20.253906-11.804687-13.726563-23.761718-28.070313-35.785156-43 3.886719-.476563 7.761719-1.027344 11.617188-1.667969 9.082031-1.5 13.351562-9.609375 8.199218-15.601563-13.917968-16.179687-28.097656-33.449218-42.332031-51.800781-5.085937-6.554687-17.359375-6.554687-22.445313 0-14.234374 18.355469-28.414062 35.621094-42.332031 51.800781-5.152343 5.992188-.882812 14.101563 8.199219 15.601563 3.855469.640625 7.730469 1.191406 11.617188 1.667969-12.023438 14.929687-23.980469 29.269531-35.785157 43-6.6875 7.773437-1.148437 18.304687 10.644531 20.253906 2.851563.472656 5.710938.898437 8.574219 1.300781-10.632812 12.984375-21.210937 25.574219-31.683593 37.753906-7.890626 9.171875-1.355469 21.585938 12.550781 23.890625 45.773437 7.574219 93.101562 7.574219 138.875 0 13.90625-2.304687 20.441406-14.71875 12.554687-23.890625zm0 0" fill="#4dc168"/></svg>