<svg height="512pt" viewBox="0 -14 512.00019 512" width="512pt" xmlns="http://www.w3.org/2000/svg"><path d="m381.035156 12.90625c-1.210937-5.191406-5.25-9.230469-10.441406-10.441406-30.707031-7.148438-64.300781 1.242187-88.234375 25.179687-26.074219 26.074219-33.699219 63.605469-22.890625 96.386719 32.78125 10.8125 70.3125 3.183594 96.386719-22.890625 23.9375-23.933594 32.328125-57.527344 25.179687-88.234375zm0 0" fill="#94dc7e"/><path d="m259.460938 134.941406c-1.371094 0-2.757813-.363281-4.015626-1.132812-3.644531-2.21875-4.792968-6.976563-2.570312-10.617188 39.578125-64.875 86.914062-92.46875 88.910156-93.609375 3.703125-2.121093 8.421875-.835937 10.542969 2.863281 2.121094 3.703126.839844 8.417969-2.855469 10.542969-.488281.28125-46.039062 26.996094-83.40625 88.25-1.457031 2.386719-4 3.703125-6.605468 3.703125zm0 0" fill="#80c56e"/><path d="m130.964844 12.90625c1.210937-5.191406 5.25-9.230469 10.441406-10.441406 30.707031-7.148438 64.300781 1.242187 88.234375 25.179687 26.074219 26.074219 33.703125 63.605469 22.890625 96.386719-32.78125 10.8125-70.3125 3.183594-96.386719-22.890625-23.9375-23.933594-32.328125-57.527344-25.179687-88.234375zm0 0" fill="#94dc7e"/><path d="m252.539062 134.941406c-2.605468 0-5.148437-1.316406-6.601562-3.703125-37.535156-61.519531-82.945312-87.988281-83.402344-88.246093-3.703125-2.121094-4.984375-6.84375-2.863281-10.546876 2.121094-3.703124 6.839844-4.984374 10.542969-2.863281 1.996094 1.140625 49.332031 28.734375 88.910156 93.609375 2.222656 3.640625 1.074219 8.394532-2.570312 10.617188-1.253907.769531-2.644532 1.132812-4.015626 1.132812zm0 0" fill="#80c56e"/><path d="m306.203125 90.378906c0 27.726563-22.476563 50.203125-50.203125 50.203125s-50.203125-22.476562-50.203125-50.203125c0-27.726562 22.476563-50.203125 50.203125-50.203125s50.203125 22.476563 50.203125 50.203125zm0 0" fill="#fd747f"/><path d="m236.703125 80.078125c0-16.265625 7.742187-30.714844 19.734375-39.890625-.148438-.003906-.289062-.011719-.4375-.011719-27.726562 0-50.203125 22.476563-50.203125 50.203125 0 27.726563 22.476563 50.203125 50.203125 50.203125 11.460938 0 22.019531-3.847656 30.46875-10.3125-27.523438-.234375-49.765625-22.613281-49.765625-50.191406zm0 0" fill="#f26365"/><path d="m431.597656 224.644531 34.410156 147.863281-210.007812 56.214844-210.003906-56.214844 34.40625-147.863281 42.503906-42.503906h268.855469zm0 0" fill="#fec37c"/><path d="m256 428.722656 20.605469-5.515625-189.402344-50.699219 44.292969-190.367187h-8.589844l-42.503906 42.503906-33.90625 145.703125-.5 2.160156zm0 0" fill="#fda956"/><path d="m496.835938 437.695312 13.429687-33.109374c6.21875-15.328126-5.0625-32.078126-21.605469-32.078126h-465.320312c-16.542969 0-27.824219 16.75-21.605469 32.078126l13.429687 33.109374c11.582032 28.558594 39.324219 47.238282 70.140626 47.238282h341.390624c30.816407 0 58.554688-18.679688 70.140626-47.238282zm0 0" fill="#94d9fd"/><path d="m56.371094 437.695312-13.429688-33.109374c-6.21875-15.328126 5.0625-32.078126 21.605469-32.078126h-41.207031c-16.542969 0-27.824219 16.75-21.605469 32.078126l13.429687 33.109374c11.585938 28.558594 39.324219 47.238282 70.140626 47.238282h41.207031c-30.816407 0-58.554688-18.679688-70.140625-47.238282zm0 0" fill="#6fb8f2"/><path d="m431.597656 224.644531-23.128906 10.808594c-9.664062 4.515625-20.078125 6.765625-30.496094 6.765625-10.414062 0-20.832031-2.25-30.492187-6.765625-9.660157-4.519531-20.078125-6.769531-30.492188-6.769531-10.417969 0-20.832031 2.25-30.496093 6.769531-9.660157 4.515625-20.078126 6.765625-30.492188 6.765625s-20.832031-2.25-30.492188-6.765625c-9.664062-4.519531-20.078124-6.769531-30.492187-6.769531-10.417969 0-20.832031 2.25-30.496094 6.769531-19.324219 9.027344-41.660156 9.027344-60.984375 0l-23.132812-10.808594 13.277344-57.074219c7.476562-32.148437 36.125-54.886718 69.121093-54.886718h186.398438c32.996093 0 61.640625 22.738281 69.121093 54.886718zm0 0" fill="#dc9f82"/><path d="m117.945312 240.390625 16.941407-72.820313c7.480469-32.148437 36.125-54.886718 69.125-54.886718h-41.207031c-33 0-61.644532 22.738281-69.125 54.886718l-.191407.835938-13.085937 56.238281 23.132812 10.808594c4.65625 2.175781 9.488282 3.8125 14.410156 4.9375zm0 0" fill="#b2795e"/><g fill="#57565b"><path d="m181.121094 305.554688c-4.265625 0-7.726563-3.457032-7.726563-7.726563v-13.550781c0-4.265625 3.460938-7.726563 7.726563-7.726563s7.726562 3.460938 7.726562 7.726563v13.550781c0 4.269531-3.460937 7.726563-7.726562 7.726563zm0 0"/><path d="m330.882812 305.554688c-4.269531 0-7.726562-3.457032-7.726562-7.726563v-13.550781c0-4.265625 3.457031-7.726563 7.726562-7.726563 4.265626 0 7.726563 3.460938 7.726563 7.726563v13.550781c0 4.269531-3.460937 7.726563-7.726563 7.726563zm0 0"/><path d="m256 312.789062c-9.433594 0-18.289062-3.941406-24.296875-10.816406-2.808594-3.214844-2.480469-8.09375.730469-10.902344 3.210937-2.808593 8.09375-2.480468 10.902344.730469 3.074218 3.519531 7.691406 5.539063 12.664062 5.539063s9.589844-2.019532 12.664062-5.535156c2.808594-3.214844 7.691407-3.542969 10.902344-.734376 3.214844 2.808594 3.542969 7.691407.730469 10.902344-6.007813 6.875-14.863281 10.816406-24.296875 10.816406zm0 0"/></g></svg>