<svg height="512pt" viewBox="0 -28 512.00095 512" width="512pt" xmlns="http://www.w3.org/2000/svg"><path d="m365.066406 250.304688c-17.402344 0-31.5625-14.160157-31.5625-31.5625 0-17.40625 14.160156-31.5625 31.5625-31.5625 17.40625 0 31.5625 14.15625 31.5625 31.5625 0 17.402343-14.15625 31.5625-31.5625 31.5625zm0-47.449219c-8.757812 0-15.886718 7.125-15.886718 15.886719 0 8.757812 7.128906 15.882812 15.886718 15.882812 8.761719 0 15.886719-7.125 15.886719-15.882812 0-8.761719-7.125-15.886719-15.886719-15.886719zm0 0" fill="#f79e31"/><path d="m392.597656 256.757812v18.121094h-55.0625v-18.121094c0-7.898437 6.402344-14.292968 14.292969-14.292968h26.476563c7.898437 0 14.292968 6.394531 14.292968 14.292968zm0 0" fill="#4d4d4d"/><path d="m392.597656 256.757812v18.121094h-36.929687v-18.121094c0-7.898437 6.398437-14.292968 14.292969-14.292968h8.34375c7.898437 0 14.292968 6.394531 14.292968 14.292968zm0 0" fill="#666"/><path d="m457.382812 362.789062c0 42.390626-28.570312 78.109376-67.511718 88.949219-7.886719 2.191407-16.207032 3.367188-24.800782 3.367188-50.988281 0-92.3125-41.335938-92.3125-92.316407 0-50.976562 41.324219-92.304687 92.3125-92.304687 4.414063 0 8.757813.308594 13.003907.90625 4.023437.5625 7.960937 1.390625 11.796875 2.457031 34.890625 9.71875 61.453125 39.390625 66.597656 75.953125.605469 4.238281.914062 8.578125.914062 12.988281zm0 0" fill="#f79e31"/><path d="m456.46875 349.796875c-4.332031 26.261719-23.675781 47.453125-48.921875 54.484375-5.824219 1.621094-11.964844 2.488281-18.304687 2.488281-37.636719 0-68.144532-30.515625-68.144532-68.148437 0-33.828125 24.65625-61.898438 56.980469-67.230469 4.023437.5625 7.957031 1.390625 11.796875 2.457031 34.886719 9.71875 61.449219 39.390625 66.59375 75.949219zm0 0" fill="#ffe66b"/><path d="m365.066406 226.578125c-4.328125 0-7.835937-3.507813-7.835937-7.835937v-105.167969c0-4.328125 3.507812-7.839844 7.835937-7.839844 4.332032 0 7.839844 3.511719 7.839844 7.839844v105.167969c0 4.328124-3.507812 7.835937-7.839844 7.835937zm0 0" fill="#6b9dc6"/><path d="m512 20.449219-76.335938 8.175781v-28.625l-83.152343 47.710938 9.542969-29.988282-81.789063 47.710938v-27.265625l-72.246094 58.617187v-31.351562l-48.390625 62.019531-18.402344-18.402344-32.71875 66.796875-16.355468-16.359375-21.808594 66.792969-24.539062-13.628906-11.140626 166.421875 129.734376-80.546875-14.992188-21.808594 72.246094-32.714844-15.675782-15.675781 67.472657-32.035156-14.765625-20.671875 73.382812-21.585938-4.542968-20.445312h69.972656l.226562-21.8125h57.433594v-20.445313h47.300781l-29.125-32.714843zm0 0" fill="#4dc168"/><path d="m502.457031 91.332031h-47.296875v20.449219h-57.425781l-.230469 21.8125h-69.976562l4.542968 20.441406-73.382812 21.578125 14.765625 20.683594-67.476563 32.03125 15.675782 15.675781-72.246094 32.710938 14.996094 21.808594-126.910156 78.796874c47.714843-96.425781 159.128906-261.910156 377.453124-312.429687 18.402344-4.253906 37.257813-6.269531 56.152344-6.269531h2.234375zm0 0" fill="#3dad52"/><path d="m7.84375 456.671875c-.742188 0-1.496094-.105469-2.242188-.328125-4.148437-1.238281-6.507812-5.597656-5.273437-9.746094 1.023437-3.441406 25.855469-85.269531 93.035156-175.570312 39.484375-53.078125 85.429688-97.878906 136.5625-133.164063 63.976563-44.144531 136.246094-73.40625 214.804688-86.972656 4.265625-.734375 8.320312 2.125 9.058593 6.390625.734376 4.265625-2.125 8.320312-6.390624 9.058594-76.1875 13.152344-146.265626 41.492187-208.285157 84.230468-49.6875 34.238282-94.378906 77.761719-132.835937 129.359376-65.679688 88.121093-90.679688 170.324218-90.925782 171.144531-1.015624 3.398437-4.132812 5.597656-7.507812 5.597656zm0 0" fill="#935d35"/></svg>