<?xml version="1.0" encoding="iso-8859-1"?>
<!-- Generator: Adobe Illustrator 19.0.0, SVG Export Plug-In . SVG Version: 6.00 Build 0)  -->
<svg version="1.1" id="Capa_1" xmlns="http://www.w3.org/2000/svg" xmlns:xlink="http://www.w3.org/1999/xlink" x="0px" y="0px"
	 viewBox="0 0 512 512" style="enable-background:new 0 0 512 512;" xml:space="preserve">
<path style="fill:#11B3C2;" d="M402.422,44.736v459.145c0,4.484-3.635,8.119-8.119,8.119H283.469c-4.484,0-8.119-3.635-8.119-8.119
	V175.095h-38.7v328.786c0,4.484-3.635,8.119-8.119,8.119H117.697c-4.484,0-8.119-3.635-8.119-8.119V44.736H402.422z"/>
<g>
	<path style="fill:#1193AD;" d="M256,180.723c-4.204,0-7.611-3.407-7.611-7.611v-56.435H233.25c-4.204,0-7.611-3.407-7.611-7.611
		V44.74c0-4.204,3.408-7.611,7.611-7.611c4.203,0,7.611,3.407,7.611,7.611v56.714H256c4.204,0,7.611,3.407,7.611,7.611v64.047
		C263.611,177.316,260.204,180.723,256,180.723z"/>
	<path style="fill:#1193AD;" d="M256,116.677c-4.204,0-7.611-3.407-7.611-7.611V44.74c0-4.204,3.408-7.611,7.611-7.611
		c4.204,0,7.611,3.407,7.611,7.611v64.325C263.611,113.269,260.204,116.677,256,116.677z"/>
	<path style="fill:#1193AD;" d="M109.579,44.74v459.14c0,4.484,3.635,8.119,8.119,8.119h9.454V44.74H109.579z"/>
</g>
<rect x="109.58" y="459.9" style="fill:#F9653D;" width="127.07" height="25.694"/>
<rect x="109.58" y="459.9" style="fill:#EF5330;" width="17.573" height="25.694"/>
<g>
	<rect x="109.58" y="44.736" style="fill:#1193AD;" width="292.84" height="19.837"/>
	<path style="fill:#1193AD;" d="M384.848,44.74V512h9.454c4.484,0,8.119-3.635,8.119-8.119V44.74H384.848z"/>
</g>
<rect x="275.35" y="459.9" style="fill:#F9653D;" width="127.07" height="25.694"/>
<rect x="384.38" y="459.9" style="fill:#EF5330;" width="18.04" height="25.694"/>
<path style="fill:#1193AD;" d="M338.885,363.836c-29.62,0-53.718-24.098-53.718-53.718c0-29.621,24.098-53.719,53.718-53.719
	c29.621,0,53.719,24.098,53.719,53.719C392.604,339.738,368.506,363.836,338.885,363.836z"/>
<g>
	<path style="fill:#E5C74C;" d="M402.421,317.729h-29.088c-4.204,0-7.612-3.407-7.612-7.612s3.407-7.611,7.612-7.611h29.088
		c4.204,0,7.612,3.407,7.612,7.611S406.625,317.729,402.421,317.729z"/>
	<path style="fill:#E5C74C;" d="M304.437,317.729H275.35c-4.204,0-7.611-3.407-7.611-7.612s3.407-7.611,7.611-7.611h29.087
		c4.204,0,7.612,3.407,7.612,7.611S308.641,317.729,304.437,317.729z"/>
</g>
<circle style="fill:#F4DC64;" cx="338.88" cy="310.12" r="34.448"/>
<path style="fill:#1193AD;" d="M173.115,363.836c-29.62,0-53.718-24.098-53.718-53.718c0-29.621,24.098-53.719,53.718-53.719
	c29.62,0,53.718,24.098,53.718,53.719C226.833,339.738,202.735,363.836,173.115,363.836z"/>
<g>
	<path style="fill:#E5C74C;" d="M236.651,317.729h-29.088c-4.204,0-7.611-3.407-7.611-7.612s3.408-7.611,7.611-7.611h29.088
		c4.204,0,7.611,3.407,7.611,7.611S240.854,317.729,236.651,317.729z"/>
	<path style="fill:#E5C74C;" d="M138.667,317.729h-29.088c-4.204,0-7.611-3.407-7.611-7.612s3.408-7.611,7.611-7.611h29.088
		c4.204,0,7.611,3.407,7.611,7.611S142.871,317.729,138.667,317.729z"/>
</g>
<circle style="fill:#F4DC64;" cx="173.12" cy="310.12" r="34.448"/>
<path style="fill:#F9653D;" d="M404.087,47.286H107.913c-4.452,0-8.061-3.609-8.061-8.061V15.673c0-4.452,3.609-8.061,8.061-8.061
	h296.174c4.452,0,8.061,3.609,8.061,8.061v23.553C412.148,43.678,408.539,47.286,404.087,47.286z"/>
<path style="fill:#EF5330;" d="M404.087,47.286H107.913c-4.452,0-8.061-3.609-8.061-8.061V27.449h312.295v11.776
	C412.148,43.678,408.539,47.286,404.087,47.286z"/>
<g>
	<path style="fill:#F4DC64;" d="M365.672,54.898c-4.204,0-7.612-3.407-7.612-7.611V7.611c0-4.204,3.407-7.611,7.612-7.611
		c4.204,0,7.611,3.407,7.611,7.611v39.675C373.283,51.491,369.876,54.898,365.672,54.898z"/>
	<path style="fill:#F4DC64;" d="M292.557,54.898c-4.204,0-7.611-3.407-7.611-7.611V7.611c0-4.204,3.407-7.611,7.611-7.611
		s7.612,3.407,7.612,7.611v39.675C300.168,51.491,296.761,54.898,292.557,54.898z"/>
	<path style="fill:#F4DC64;" d="M219.443,54.898c-4.204,0-7.611-3.407-7.611-7.611V7.611c0-4.204,3.408-7.611,7.611-7.611
		c4.203,0,7.611,3.407,7.611,7.611v39.675C227.054,51.491,223.646,54.898,219.443,54.898z"/>
	<path style="fill:#F4DC64;" d="M146.328,54.898c-4.204,0-7.611-3.407-7.611-7.611V7.611c0-4.204,3.408-7.611,7.611-7.611
		c4.203,0,7.611,3.407,7.611,7.611v39.675C153.94,51.491,150.532,54.898,146.328,54.898z"/>
</g>
<path style="fill:#1193AD;" d="M298.698,182.706h-85.395c-4.204,0-7.611-3.407-7.611-7.611s3.408-7.611,7.611-7.611h85.395
	c4.204,0,7.611,3.407,7.611,7.611S302.902,182.706,298.698,182.706z"/>
<g>
</g>
<g>
</g>
<g>
</g>
<g>
</g>
<g>
</g>
<g>
</g>
<g>
</g>
<g>
</g>
<g>
</g>
<g>
</g>
<g>
</g>
<g>
</g>
<g>
</g>
<g>
</g>
<g>
</g>
</svg>
