<svg height="512pt" viewBox="-3 0 512 512.00038" width="512pt" xmlns="http://www.w3.org/2000/svg"><path d="m432.039062 36.28125-48.914062 18.964844-55.757812-18.964844c-14.832032-14.84375 6.507812-36.28125 52.339843-36.28125 5.710938 0 11.042969.332031 15.96875.949219 34.613281 4.289062 49.355469 22.34375 36.363281 35.332031zm0 0" fill="#beccd3"/><path d="m432.039062 36.28125h-72.726562c-12.988281-12.988281 1.742188-31.042969 36.363281-35.332031 34.613281 4.289062 49.355469 22.34375 36.363281 35.332031zm0 0" fill="#dae6ed"/><path d="m327.367188 109.816406v-73.542968h104.675781v178.210937" fill="#ef5361"/><path d="m490.144531 264.816406h-446.175781c-81.4375-6.980468 192.535156-244.597656 222.296875-249.117187.289063-.054688.550781-.074219.789063-.074219 25.25 0 305.316406 242.148438 223.089843 249.191406zm0 0" fill="#dae6ed"/><path d="m266.265625 15.699219v249.117187h-222.296875c-81.4375-6.980468 192.535156-244.597656 222.296875-249.117187zm0 0" fill="#beccd3"/><path d="m436.945312 247.472656v263.691406h-355.324218v-216.621093l-.394532-28.683594 11.832032-12.59375 118.164062-125.789063 48.0625-51.167968 5.457032 5.261718 126.363281 121.738282zm0 0" fill="#935d35"/><path d="m436.945312 249.148438v75.15625l-169.890624-169.890626-185.433594 185.429688v-45.300781l-.394532-28.683594 11.832032-12.59375 171.683594-171.695313 2.3125-2.3125zm0 0" fill="#7f4a26"/><path d="m65.605469 318.335938-37.578125-37.574219 239.03125-239.03125 223.089844 223.089843-37.574219 37.574219-185.515625-185.515625zm0 0" fill="#ef5361"/><path d="m171.355469 266.242188h186.796875v186.796874h-186.796875zm0 0" fill="#ef5361"/><g fill="#dae6ed"><path d="m251.457031 346.34375c2.125-17.695312 2.125-35.394531 0-53.09375-17.699219-2.125-35.394531-2.125-53.09375 0-2.125 17.695312-2.125 35.394531 0 53.09375 17.699219 2.125 35.394531 2.125 53.09375 0zm0 0"/><path d="m251.457031 426.03125c2.125-17.699219 2.125-35.398438 0-53.097656-17.699219-2.125-35.394531-2.125-53.09375 0-2.125 17.699218-2.125 35.398437 0 53.097656 17.699219 2.125 35.394531 2.125 53.09375 0zm0 0"/><path d="m331.144531 346.34375c2.125-17.695312 2.125-35.394531 0-53.09375-17.699219-2.125-35.398437-2.125-53.097656 0-2.121094 17.695312-2.121094 35.394531 0 53.09375 17.699219 2.125 35.398437 2.125 53.097656 0zm0 0"/><path d="m331.144531 426.03125c2.125-17.699219 2.125-35.398438 0-53.097656-17.699219-2.125-35.398437-2.125-53.097656 0-2.121094 17.699218-2.121094 35.398437 0 53.097656 17.699219 2.125 35.398437 2.125 53.097656 0zm0 0"/></g><path d="m149.121094 485.632812c0 18.53125-10.582032 24.34375-27.1875 25.875-8.59375.800782-18.8125.457032-30.007813.136719-5.574219-.15625-11.386719-.3125-17.363281-.3125-4.3125 0-8.542969.082031-12.65625.175781-35.15625.894532-61.90625 3.59375-61.90625-25.875 0-32.914062 33.375-59.601562 74.5625-59.601562 5.976562 0 11.789062.5625 17.351562 1.625 32.8125 6.25 57.207032 29.84375 57.207032 57.976562zm0 0" fill="#beccd3"/><path d="m149.121094 485.632812c0 18.53125-10.582032 24.34375-27.1875 25.875-4.113282-.09375-8.34375-.175781-12.65625-.175781-5.976563 0-11.789063.15625-17.351563.3125-11.207031.320313-21.425781.664063-30.019531-.136719-16.605469-1.53125-27.1875-7.34375-27.1875-25.875 0-28.132812 24.394531-51.726562 57.195312-57.976562 32.8125 6.25 57.207032 29.84375 57.207032 57.976562zm0 0" fill="#dae6ed"/><path d="m505.839844 490.269531c0 14.800781-8.1875 19.75-21.132813 21.195313-6.304687.710937-13.738281.585937-21.917969.355468-5.8125-.167968-12-.375-18.40625-.375-1.175781 0-2.351562.011719-3.519531.019532-32.3125.355468-57.9375 4.992187-57.9375-21.195313 0-27.136719 27.511719-49.125 61.457031-49.125 6.417969 0 12.59375.78125 18.40625 2.238281 24.949219 6.25 43.050782 24.875 43.050782 46.886719zm0 0" fill="#beccd3"/><path d="m505.839844 490.269531c0 14.800781-8.1875 19.75-21.132813 21.195313-1.167969-.007813-2.34375-.019532-3.523437-.019532-6.402344 0-12.582032.207032-18.394532.375-8.175781.230469-15.613281.355469-21.925781-.355468-12.949219-1.445313-21.132812-6.394532-21.132812-21.195313 0-22.011719 18.101562-40.636719 43.058593-46.886719 24.949219 6.25 43.050782 24.875 43.050782 46.886719zm0 0" fill="#dae6ed"/></svg>