<svg height="512pt" viewBox="-97 0 512 512" width="512pt" xmlns="http://www.w3.org/2000/svg"><path d="m4.878906 336.894531 23.976563 139.078125 23.511719-53.285156 26.644531 89.3125 17.238281-57.96875 28.210938 45.453125 17.238281-84.632813 30.300781 65.824219 17.117188-155.695312" fill="#dae6ed"/><path d="m153.589844 228.074219v-170.085938c0-32.027343-25.960938-57.988281-57.988282-57.988281-32.023437 0-57.988281 25.960938-57.988281 57.988281v170.085938c-22.859375 17.46875-37.613281 45.011719-37.613281 76.003906 0 52.800781 42.804688 95.605469 95.601562 95.605469 52.800782 0 95.605469-42.804688 95.605469-95.605469 0-30.992187-14.753906-58.535156-37.617187-76.003906zm0 0" fill="#beccd3"/><path d="m159.863281 304.085938c0 35.421874-28.828125 64.25-64.261719 64.25-35.433593 0-64.25-28.828126-64.25-64.25 0-20.199219 9.214844-38.820313 25.296876-51.105469l12.308593-9.40625v-185.582031c0-14.691407 11.953125-26.644532 26.644531-26.644532 14.691407 0 26.644532 11.953125 26.644532 26.644532v185.582031l12.308594 9.40625c16.082031 12.285156 25.308593 30.90625 25.308593 51.105469zm0 0" fill="#6b9dc6"/><path d="m95.597656 368.335938c-35.433594 0-64.25-28.828126-64.25-64.25 0-20.199219 9.214844-38.820313 25.296875-51.105469l12.308594-9.40625v-185.582031c0-14.691407 11.953125-26.644532 26.644531-26.644532-6.089844 0-11.042968 11.953125-11.042968 26.644532v185.582031l-5.101563 9.40625c-6.675781 12.285156-10.488281 30.90625-10.488281 51.105469 0 35.421874 11.941406 64.25 26.632812 64.25zm0 0" fill="#4588b5"/><path d="m122.246094 57.992188v148.414062h-53.289063v-148.414062c0-14.691407 11.953125-26.644532 26.644531-26.644532 14.691407 0 26.644532 11.953125 26.644532 26.644532zm0 0" fill="#f2f2f2"/><path d="m95.597656 31.347656c-14.6875.003906-26.636718 11.953125-26.636718 26.644532v148.414062h15.59375v-148.414062c0-14.691407 4.953124-26.640626 11.042968-26.644532zm0 0" fill="#e6e6e6"/><path d="m225.8125 220.507812h92.46875v29.78125h-92.46875zm0 0" fill="#6b9dc6"/><path d="m318.28125 31.347656h-31.347656v-31.347656h-29.777344v31.347656h-31.34375v29.777344h31.34375v31.34375h29.777344v-31.34375h31.347656zm0 0" fill="#ef5361"/><g fill="#beccd3"><path d="m28.855469 475.972656-5.550781-146.546875-18.425782 7.46875"/><path d="m79.011719 512-6.59375-75.996094-20.050781-13.316406zm0 0"/><path d="m96.25 454.03125 28.210938 45.453125-14.429688-66.617187zm0 0"/><path d="m172 480.675781-10.765625-56.167969 15.539063 12.757813-13.449219-42.011719-21.625 19.597656"/></g></svg>