<svg height="512pt" viewBox="0 -9 512 512" width="512pt" xmlns="http://www.w3.org/2000/svg"><path d="m512 183.199219c0 62.738281-50.867188 113.59375-113.59375 113.59375h-304.863281c-51.664063 0-93.53906275-41.875-93.53906275-93.535157 0-51.664062 41.87499975-93.550781 93.53906275-93.550781 3.644531 0 7.238281.210938 10.769531.617188.996094.117187 1.980469.242187 2.96875.390625 16.566406-63.273438 73.855469-110.074219 142.171875-110.7031252.460937-.0117188.921875-.0117188 1.394531-.0117188 53.796875 0 100.902344 28.628906 126.933594 71.46875 6.6875-1.226562 13.582031-1.867188 20.625-1.867188 33.28125 0 63.21875 14.316407 83.988281 37.121094h.011719c18.382812 20.179688 29.59375 47.019532 29.59375 76.476563zm0 0" fill="#dae6ed"/><path d="m482.394531 106.722656c-107.117187-29.761718-163.234375 42.324219-163.234375 42.324219 0-37.726563 20.433594-77.578125 58.621094-77.578125 6.6875-1.226562 13.582031-1.867188 20.625-1.867188 33.28125 0 63.21875 14.316407 83.988281 37.121094zm0 0" fill="#beccd3"/><path d="m160.410156 155.335938s-11.9375-43.617188-53.128906-44.621094c16.566406-63.273438 73.855469-110.074219 142.171875-110.7031252-61.316406 1.3515622-98.402344 91.3554692-89.042969 155.3242192zm0 0" fill="#beccd3"/><path d="m117.964844 296.792969h-24.425782c-51.664062 0-93.539062-41.878907-93.539062-93.539063 0-51.664062 41.875-93.550781 93.539062-93.550781 3.644532 0 7.238282.210937 10.773438.621094.992188.113281 1.980469.238281 2.964844.386719-52.1875 0-105.621094 154.640624 10.6875 186.082031zm0 0" fill="#beccd3"/><path d="m408.203125 232.183594c-11.773437 0-23.546875-2.628906-34.277344-7.886719-3.898437-1.910156-5.511719-6.617187-3.601562-10.515625 1.910156-3.894531 6.617187-5.507812 10.515625-3.597656 17.132812 8.390625 37.589844 8.394531 54.722656 0 3.898438-1.910156 8.605469-.300782 10.515625 3.597656s.296875 8.605469-3.601563 10.515625c-10.730468 5.257813-22.503906 7.886719-34.273437 7.886719zm0 0" fill="#beccd3"/><path d="m442.835938 184.171875c-4.34375 0-7.859376-3.519531-7.859376-7.859375v-19.941406c0-4.339844 3.515626-7.859375 7.859376-7.859375 4.339843 0 7.859374 3.519531 7.859374 7.859375v19.941406c0 4.339844-3.519531 7.859375-7.859374 7.859375zm0 0" fill="#beccd3"/><path d="m373.574219 184.171875c-4.339844 0-7.859375-3.519531-7.859375-7.859375v-19.941406c0-4.339844 3.519531-7.859375 7.859375-7.859375 4.34375 0 7.859375 3.519531 7.859375 7.859375v19.941406c0 4.339844-3.515625 7.859375-7.859375 7.859375zm0 0" fill="#beccd3"/><g fill="#dae6ed"><path d="m109.835938 344.238281c-3.070313-3.070312-8.046876-3.070312-11.117188 0l-12.226562 12.226563-12.226563-12.226563c-3.066406-3.070312-8.046875-3.070312-11.113281 0-3.070313 3.070313-3.070313 8.046875 0 11.113281l12.226562 12.226563-12.226562 12.226563c-3.070313 3.070312-3.070313 8.046874 0 11.113281 1.535156 1.535156 3.546875 2.304687 5.558594 2.304687 2.007812 0 4.023437-.769531 5.554687-2.304687l12.226563-12.226563 12.226562 12.226563c1.535156 1.535156 3.546875 2.304687 5.558594 2.304687 2.011718 0 4.023437-.769531 5.554687-2.304687 3.070313-3.066407 3.070313-8.042969 0-11.113281l-12.226562-12.226563 12.226562-12.226563c3.070313-3.066406 3.070313-8.042968.003907-11.113281zm0 0"/><path d="m222.839844 344.238281c-3.070313-3.070312-8.046875-3.070312-11.113282 0l-12.226562 12.226563-12.226562-12.226563c-3.070313-3.070312-8.046876-3.070312-11.113282 0-3.070312 3.070313-3.070312 8.046875 0 11.113281l12.226563 12.226563-12.226563 12.226563c-3.070312 3.070312-3.070312 8.046874 0 11.113281 1.53125 1.535156 3.542969 2.304687 5.554688 2.304687 2.011718 0 4.023437-.769531 5.558594-2.304687l12.226562-12.226563 12.226562 12.226563c1.53125 1.535156 3.546876 2.304687 5.554688 2.304687 2.011719 0 4.023438-.769531 5.558594-2.304687 3.070312-3.066407 3.070312-8.042969 0-11.113281l-12.226563-12.226563 12.226563-12.226563c3.070312-3.066406 3.070312-8.042968 0-11.113281zm0 0"/><path d="m335.847656 351.019531c-3.070312-3.070312-8.046875-3.070312-11.117187 0l-12.226563 12.226563-12.226562-12.226563c-3.070313-3.070312-8.042969-3.070312-11.113282 0-3.070312 3.070313-3.070312 8.046875 0 11.113281l12.226563 12.226563-12.226563 12.226563c-3.070312 3.070312-3.070312 8.046874 0 11.113281 1.535157 1.535156 3.546876 2.304687 5.558594 2.304687 2.011719 0 4.023438-.769531 5.558594-2.304687l12.226562-12.226563 12.222657 12.226563c1.535156 1.535156 3.546875 2.304687 5.558593 2.304687 2.011719 0 4.023438-.769531 5.558594-2.304687 3.070313-3.066407 3.070313-8.042969 0-11.113281l-12.226562-12.226563 12.226562-12.226563c3.066406-3.066406 3.066406-8.042968 0-11.113281zm0 0"/><path d="m436.625 374.359375 12.226562-12.226563c3.070313-3.066406 3.070313-8.042968 0-11.113281-3.070312-3.070312-8.042968-3.070312-11.113281 0l-12.226562 12.226563-12.226563-12.226563c-3.070312-3.070312-8.046875-3.070312-11.117187 0-3.066407 3.070313-3.066407 8.046875 0 11.113281l12.226562 12.226563-12.226562 12.226563c-3.066407 3.070312-3.066407 8.046874 0 11.113281 1.535156 1.535156 3.550781 2.304687 5.558593 2.304687 2.011719 0 4.023438-.769531 5.558594-2.304687l12.226563-12.226563 12.226562 12.226563c1.535157 1.535156 3.546875 2.304687 5.558594 2.304687s4.023437-.769531 5.558594-2.304687c3.070312-3.066407 3.070312-8.042969 0-11.113281zm0 0"/><path d="m166.335938 439.074219c-3.066407-3.070313-8.042969-3.070313-11.113282 0l-12.226562 12.226562-12.226563-12.226562c-3.066406-3.070313-8.042969-3.070313-11.113281 0-3.070312 3.070312-3.070312 8.046875 0 11.113281l12.226562 12.226562-12.226562 12.226563c-3.070312 3.070313-3.070312 8.046875 0 11.113281 1.535156 1.535156 3.546875 2.304688 5.558594 2.304688 2.011718 0 4.023437-.769532 5.554687-2.304688l12.226563-12.226562 12.226562 12.226562c1.535156 1.535156 3.546875 2.304688 5.558594 2.304688s4.023438-.769532 5.554688-2.304688c3.070312-3.070312 3.070312-8.046875 0-11.113281l-12.222657-12.226563 12.222657-12.226562c3.070312-3.066406 3.070312-8.042969 0-11.113281zm0 0"/><path d="m279.34375 445.855469c-3.070312-3.070313-8.046875-3.070313-11.117188 0l-12.226562 12.226562-12.222656-12.226562c-3.070313-3.070313-8.046875-3.070313-11.117188 0-3.070312 3.070312-3.070312 8.046875 0 11.113281l12.226563 12.226562-12.226563 12.226563c-3.070312 3.070313-3.070312 8.046875 0 11.113281 1.535156 1.535156 3.546875 2.304688 5.558594 2.304688s4.023438-.769532 5.558594-2.304688l12.222656-12.226562 12.226562 12.226562c1.535157 1.535156 3.546876 2.304688 5.558594 2.304688 2.011719 0 4.023438-.769532 5.558594-2.304688 3.070312-3.070312 3.070312-8.046875 0-11.113281l-12.226562-12.226563 12.226562-12.226562c3.070312-3.066406 3.070312-8.042969 0-11.113281zm0 0"/><path d="m392.351562 445.855469c-3.070312-3.070313-8.046874-3.070313-11.117187 0l-12.226563 12.226562-12.226562-12.226562c-3.070312-3.070313-8.046875-3.070313-11.113281 0-3.070313 3.070312-3.070313 8.046875 0 11.113281l12.226562 12.226562-12.226562 12.226563c-3.070313 3.070313-3.070313 8.046875 0 11.113281 1.535156 1.535156 3.542969 2.304688 5.558593 2.304688 2.007813 0 4.019532-.769532 5.554688-2.304688l12.226562-12.226562 12.226563 12.226562c1.535156 1.535156 3.546875 2.304688 5.558594 2.304688s4.023437-.769532 5.558593-2.304688c3.070313-3.070312 3.070313-8.046875 0-11.113281l-12.226562-12.226563 12.226562-12.226562c3.066407-3.066406 3.066407-8.042969 0-11.113281zm0 0"/></g></svg>