<svg height="512pt" viewBox="-2 0 512 512.00105" width="512pt" xmlns="http://www.w3.org/2000/svg"><path d="m179.105469 91.097656c-25.117188 0-45.550781-20.433594-45.550781-45.550781 0-25.113281 20.433593-45.546875 45.550781-45.546875 25.113281 0 45.546875 20.433594 45.546875 45.546875 0 25.117187-20.433594 45.550781-45.546875 45.550781zm0-75.34375c-16.429688 0-29.796875 13.367188-29.796875 29.792969 0 16.429687 13.367187 29.796875 29.796875 29.796875 16.425781 0 29.792969-13.367188 29.792969-29.796875 0-16.425781-13.367188-29.792969-29.792969-29.792969zm0 0" fill="#ffe66b"/><path d="m360.699219 123.375c-25.117188 0-45.550781-20.433594-45.550781-45.550781 0-25.113281 20.433593-45.546875 45.550781-45.546875 25.113281 0 45.546875 20.433594 45.546875 45.546875 0 25.117187-20.433594 45.550781-45.546875 45.550781zm0-75.34375c-16.429688 0-29.796875 13.367188-29.796875 29.792969 0 16.429687 13.367187 29.796875 29.796875 29.796875 16.425781 0 29.792969-13.367188 29.792969-29.796875 0-16.429688-13.367188-29.792969-29.792969-29.792969zm0 0" fill="#ffe66b"/><path d="m222.820312 95.414062v28.777344h-87.433593v-28.777344c0-12.539062 10.164062-22.695312 22.695312-22.695312h42.039063c12.542968 0 22.699218 10.15625 22.699218 22.695312zm0 0" fill="#f79e31"/><path d="m222.820312 95.414062v28.777344h-58.648437v-28.777344c0-12.539062 10.167969-22.695312 22.695313-22.695312h13.253906c12.542968 0 22.699218 10.15625 22.699218 22.695312zm0 0" fill="#ffe66b"/><path d="m305.574219 160.195312c-28.105469-23.632812-69.042969-39.429687-126.472657-39.429687-161.046874 0-192.5 124.300781-174.648437 196.976563 22.058594 89.796874 174.648437 130.230468 174.648437 194.253906 0-35.90625 48.007813-64.398438 94.0625-98.34375zm0 0" fill="#ef5361"/><path d="m85.785156 317.746094c11.785156 89.796875 93.316406 130.230468 93.316406 194.253906 0-64.023438-152.589843-104.457031-174.648437-194.253906-17.851563-72.679688 13.601563-196.976563 174.648437-196.976563-86.058593 0-102.863281 124.296875-93.316406 196.976563zm0 0" fill="#dc4250"/><path d="m353.765625 317.765625c-1.871094 7.625-4.695313 14.902344-8.277344 21.867187-.011719.007813-.023437.03125-.03125.039063-47.925781 84.261719-271.460937 29.230469-201.976562 117.367187-31.308594-26.171874-76.550781-52.15625-107.429688-85.226562 0-.011719-.011719-.011719-.011719-.023438-74.902343-174.257812 334.8125-115.546874 260.328126-218.683593 58.855468 41.8125 69.546874 115.179687 57.398437 164.660156zm0 0" fill="#ffe66b"/><path d="m143.480469 457.039062c-31.308594-26.171874-76.550781-52.15625-107.429688-85.226562 0-.011719-.011719-.011719-.011719-.023438-24.449218-56.871093 2.722657-88.925781 47.839844-109.898437-1.089844 19.914063-.28125 39.238281 1.902344 55.851563 5.542969 42.285156 26.550781 73.613281 47.238281 101.625-5.554687 8.421874-3.277343 20.25 10.460938 37.671874zm0 0" fill="#f79e31"/><path d="m404.414062 127.6875v28.777344h-87.433593v-28.777344c0-12.539062 10.164062-22.695312 22.695312-22.695312h42.042969c12.539062 0 22.695312 10.15625 22.695312 22.695312zm0 0" fill="#f79e31"/><path d="m404.414062 127.6875v28.777344h-58.648437v-28.777344c0-12.539062 10.167969-22.695312 22.699219-22.695312h13.253906c12.539062 0 22.695312 10.15625 22.695312 22.695312zm0 0" fill="#ffe66b"/><path d="m507.285156 296.066406c0 67.308594-45.371094 124.023438-107.199218 141.238282-12.527344 3.484374-25.742188 5.34375-39.382813 5.34375-80.964844 0-146.585937-65.628907-146.585937-146.582032s65.621093-146.585937 146.585937-146.585937c13.640625 0 26.855469 1.859375 39.382813 5.347656 61.828124 17.210937 107.199218 73.925781 107.199218 141.238281zm0 0" fill="#4588b5"/><path d="m507.285156 296.066406c0 67.308594-45.371094 124.023438-107.199218 141.238282-61.828126-17.203126-107.210938-73.929688-107.210938-141.238282 0-67.3125 45.382812-124.035156 107.210938-141.238281 61.828124 17.210937 107.199218 73.925781 107.199218 141.238281zm0 0" fill="#6b9dc6"/><path d="m463.839844 237.335938c0 15.660156-12.695313 28.355468-28.355469 28.355468s-28.355469-12.695312-28.355469-28.355468c0-15.660157 12.695313-28.355469 28.355469-28.355469s28.355469 12.695312 28.355469 28.355469zm0 0" fill="#4588b5"/></svg>