<svg height="512pt" viewBox="-23 0 512 512" width="512pt" xmlns="http://www.w3.org/2000/svg"><path d="m427.058594 496.722656h-387.5625v-481.445312h387.5625zm0 0" fill="#ff432e"/><path d="m233.277344 15.277344h193.78125v481.445312h-193.78125zm0 0" fill="#ea0016"/><path d="m411.78125 449.78125h-357.003906c-8.441406 0-15.28125-6.839844-15.28125-15.277344v-357.007812c0-8.4375 6.839844-15.277344 15.28125-15.277344h357.003906c8.4375 0 15.277344 6.839844 15.277344 15.277344v357.007812c0 8.4375-6.839844 15.277344-15.277344 15.277344zm0 0" fill="#fff"/><path d="m411.78125 62.21875h-178.503906v387.5625h178.503906c8.4375 0 15.277344-6.839844 15.277344-15.277344v-357.007812c0-8.4375-6.839844-15.277344-15.277344-15.277344zm0 0" fill="#e3fbff"/><path d="m427.058594 62.21875h-387.5625v387.5625h387.5625zm-30.316406 178.507812h-148.183594v-147.953124h148.183594zm0 30.554688v147.945312h-148.183594v-147.945312zm-178.742188-178.507812v147.953124h-147.945312v-147.953124zm-147.945312 178.507812h147.945312v147.945312h-147.945312zm0 0" fill="#ca6d36"/><path d="m233.277344 449.78125h193.78125v-387.5625h-193.78125zm15.28125-357.007812h148.183594v147.953124h-148.183594zm148.183594 178.507812v147.945312h-148.183594v-147.945312zm0 0" fill="#9e5015"/><path d="m451.277344 512h-436c-8.4375 0-15.277344-6.839844-15.277344-15.277344s6.839844-15.28125 15.277344-15.28125h436.003906c8.4375 0 15.277344 6.84375 15.277344 15.28125s-6.839844 15.277344-15.28125 15.277344zm0 0" fill="#3cd395"/><path d="m451.277344 30.558594h-436c-8.4375 0-15.277344-6.84375-15.277344-15.28125s6.839844-15.277344 15.277344-15.277344h436.003906c8.4375 0 15.277344 6.839844 15.277344 15.277344s-6.839844 15.28125-15.28125 15.28125zm0 0" fill="#3cd395"/><g fill="#6df"><path d="m297.550781 152.726562c7.992188 0 15.648438-7.027343 15.277344-15.277343-.371094-8.277344-6.714844-15.277344-15.277344-15.277344-7.992187 0-15.648437 7.027344-15.28125 15.277344.371094 8.277343 6.714844 15.277343 15.28125 15.277343zm0 0"/><path d="m344.652344 203.023438c7.992187 0 15.648437-7.027344 15.277344-15.277344-.371094-8.28125-6.710938-15.28125-15.277344-15.28125-7.992188 0-15.648438 7.027344-15.277344 15.28125.371094 8.277344 6.710938 15.277344 15.277344 15.277344zm0 0"/><path d="m302.339844 381.855469c7.992187 0 15.648437-7.027344 15.277344-15.28125-.371094-8.277344-6.710938-15.277344-15.277344-15.277344-7.992188 0-15.648438 7.027344-15.277344 15.277344.371094 8.28125 6.710938 15.28125 15.277344 15.28125zm0 0"/><path d="m363.8125 331.558594c7.992188 0 15.648438-7.027344 15.28125-15.277344-.371094-8.277344-6.714844-15.28125-15.28125-15.28125-7.992188 0-15.648438 7.027344-15.277344 15.28125.371094 8.277344 6.710938 15.277344 15.277344 15.277344zm0 0"/></g><path d="m161.832031 329.164062c7.988281 0 15.648438-7.027343 15.277344-15.28125-.371094-8.277343-6.714844-15.277343-15.277344-15.277343-7.992187 0-15.648437 7.027343-15.28125 15.277343.371094 8.28125 6.714844 15.28125 15.28125 15.28125zm0 0" fill="#a6ecff"/><path d="m116.324219 382.652344c7.992187 0 15.648437-7.027344 15.277343-15.277344-.371093-8.277344-6.710937-15.277344-15.277343-15.277344-7.992188 0-15.648438 7.023438-15.277344 15.277344.367187 8.277344 6.710937 15.277344 15.277344 15.277344zm0 0" fill="#a6ecff"/><path d="m133.886719 155.921875c7.992187 0 15.648437-7.027344 15.28125-15.28125-.371094-8.277344-6.714844-15.277344-15.28125-15.277344-7.992188 0-15.648438 7.027344-15.277344 15.277344.371094 8.277344 6.714844 15.28125 15.277344 15.28125zm0 0" fill="#a6ecff"/><path d="m161.832031 213.800781c7.988281 0 15.648438-7.027343 15.277344-15.277343-.371094-8.277344-6.714844-15.277344-15.277344-15.277344-7.992187 0-15.648437 7.027344-15.28125 15.277344.371094 8.277343 6.714844 15.277343 15.28125 15.277343zm0 0" fill="#a6ecff"/><path d="m288.367188 319.183594c7.992187 0 15.648437-7.027344 15.28125-15.277344-.371094-8.277344-6.714844-15.28125-15.28125-15.28125-7.988282 0-15.644532 7.027344-15.277344 15.28125.371094 8.277344 6.714844 15.277344 15.277344 15.277344zm0 0" fill="#6df"/><path d="m451.277344 481.441406h-218v30.558594h218.003906c8.4375 0 15.277344-6.839844 15.277344-15.277344s-6.839844-15.28125-15.28125-15.28125zm0 0" fill="#00b440"/><path d="m451.277344 0h-218v30.558594h218.003906c8.4375 0 15.277344-6.84375 15.277344-15.28125s-6.839844-15.277344-15.28125-15.277344zm0 0" fill="#00b440"/></svg>