<svg height="512pt" viewBox="-26 0 512 512" width="512pt" xmlns="http://www.w3.org/2000/svg"><path d="m459.316406 229.675781c0 41.03125-10.761718 79.546875-29.609375 112.875-14.609375 25.851563-34.09375 48.578125-57.1875 66.945313l-287.140625-1.148438c-22.476562-18.167968-41.453125-40.488281-55.765625-65.796875-18.851562-33.328125-29.613281-71.84375-29.613281-112.875 0-126.839843 102.828125-229.6640622 229.664062-229.6640622 126.835938 0 229.652344 102.8242192 229.652344 229.6640622zm0 0" fill="#dae6ed"/><path d="m85.375 408.335938c-22.472656-18.167969-41.449219-40.488282-55.761719-65.792969-18.851562-33.332031-29.613281-71.847657-29.613281-112.878907 0-126.839843 102.824219-229.664062 229.664062-229.664062 18.734376 0 36.9375 2.246094 54.375 6.476562-100.601562 24.421876-175.300781 115.085938-175.300781 223.1875 0 41.03125 10.765625 79.546876 29.613281 112.878907 14.316407 25.304687 33.289063 47.625 55.765626 65.792969zm0 0" fill="#beccd3"/><path d="m327.496094 277.238281c42.066406-19.632812-1.683594-46.121093-23.15625-57.6875l4.992187-20.78125c27.4375-4.230469 3.539063-54.085937-27.691406-51.1875l9.390625-17.878906c33.714844-10.292969-23.757812-94.929687-61.371094-94.929687-37.617187 0-96.125 84.636718-61.375 94.929687l9.394532 17.878906c-31.230469-2.898437-55.128907 46.957031-27.695313 51.1875l4.992187 20.78125c-21.472656 11.566407-65.222656 38.054688-23.152343 57.6875" fill="#fff"/><path d="m200.25 281.367188h58.816406v61.191406h-58.816406zm0 0" fill="#935d35"/><path d="m200.25 281.367188h21.054688v61.191406h-21.054688zm0 0" fill="#7f4a26"/><path d="m259.066406 281.367188v35.089843c-19.570312 1.179688-39.246094 1.179688-58.816406 0v-35.089843zm0 0" fill="#7f4a26"/><path d="m323.621094 266.738281c-12.007813-13.960937-24.125-28.382812-36.3125-43.265625 3.28125-.460937 6.558594-.949218 9.828125-1.492187 13.511719-2.234375 19.863281-14.300781 12.195312-23.214844-13.527343-15.730469-27.226562-32.164063-41.007812-49.273437 4.453125-.542969 8.894531-1.175782 13.3125-1.910157 10.410156-1.722656 15.300781-11.015625 9.394531-17.878906-15.945312-18.542969-32.199219-38.332031-48.511719-59.367187-5.828125-7.511719-19.894531-7.511719-25.71875 0-16.3125 21.035156-32.566406 40.824218-48.515625 59.367187-5.90625 6.863281-1.011718 16.15625 9.398438 17.878906 4.417968.734375 8.859375 1.367188 13.3125 1.910157-13.78125 17.109374-27.480469 33.542968-41.007813 49.273437-7.667969 8.914063-1.316406 20.980469 12.195313 23.214844 3.265625.542969 6.542968 1.03125 9.828125 1.492187-12.1875 14.882813-24.308594 29.304688-36.3125 43.265625-9.039063 10.507813-1.550781 24.738281 14.382812 27.375 52.457031 8.683594 106.699219 8.683594 159.15625 0 15.933594-2.636719 23.421875-16.867187 14.382813-27.375zm0 0" fill="#9fd661"/><path d="m197.363281 294.113281c10.648438 4.347657 21.472657 6.511719 32.296875 6.511719-26.675781 0-53.351562-2.164062-79.578125-6.511719-15.933593-2.632812-23.425781-16.863281-14.386719-27.375 12.007813-13.960937 24.125-28.378906 36.308594-43.269531-3.28125-.457031-6.5625-.949219-9.820312-1.480469-13.511719-2.238281-19.863282-14.304687-12.203125-23.21875 13.53125-15.726562 27.226562-32.160156 41.011719-49.277343-4.453126-.542969-8.894532-1.179688-13.3125-1.910157-10.40625-1.714843-15.296876-11.015625-9.394532-17.878906 15.945313-18.546875 32.191406-38.324219 48.515625-59.359375 2.914063-3.761719 7.886719-5.632812 12.859375-5.632812-2.027344 0-4.042968 1.871093-5.222656 5.632812-6.625 21.035156-13.21875 40.8125-19.6875 59.359375-2.402344 6.863281-.417969 16.164063 3.816406 17.878906 1.785156.730469 3.59375 1.367188 5.402344 1.910157-5.589844 17.117187-11.148438 33.550781-16.644531 49.277343-3.117188 8.914063-.535157 20.980469 4.949219 23.21875 1.328124.53125 2.65625 1.023438 3.984374 1.480469-4.945312 14.890625-9.867187 29.308594-14.734374 43.269531-3.667969 10.511719-.628907 24.742188 5.839843 27.375zm0 0" fill="#8bc34c"/><path d="m429.707031 342.550781c-14.609375 25.851563-34.09375 48.578125-57.1875 66.945313l-179.539062 31.726562-107.601563-32.875c-22.476562-18.167968-41.453125-40.488281-55.765625-65.796875zm0 0" fill="#f2f2f2"/><path d="m194.117188 408.339844-1.136719.4375-107.601563-.429688c-22.476562-18.167968-41.453125-40.488281-55.765625-65.796875h108.75c14.316407 25.308594 33.28125 47.617188 55.753907 65.789063zm0 0" fill="#e6e6e6"/><path d="m358.675781 512h-259.734375c-19.257812 0-33.511718-17.941406-29.144531-36.707031l15.582031-66.953125h286.867188l15.582031 66.953125c4.355469 18.765625-9.886719 36.707031-29.152344 36.707031zm0 0" fill="#f79e31"/><path d="m358.675781 512h-157.242187c-19.257813 0-33.511719-17.941406-29.144532-36.707031l15.582032-66.953125h184.375l15.582031 66.953125c4.355469 18.765625-9.886719 36.707031-29.152344 36.707031zm0 0" fill="#ffe66b"/><g fill="#fff"><path d="m401.023438 116.273438c0 21.929687-17.777344 39.707031-39.703126 39.707031-21.929687 0-39.707031-17.777344-39.707031-39.707031 0-21.925782 17.777344-39.703126 39.707031-39.703126 21.925782 0 39.703126 17.777344 39.703126 39.703126zm0 0"/><path d="m103.234375 127.25c-6.945313 0-10.40625-8.761719-5.402344-13.515625 2.632813-2.5 6.734375-2.84375 9.757813-.839844 2.535156 1.675781 3.878906 4.816407 3.371094 7.808594-.632813 3.71875-3.941407 6.546875-7.726563 6.546875zm0 0"/><path d="m43.675781 210.839844c-6.890625 0-10.414062-8.714844-5.421875-13.496094 2.265625-2.171875 5.726563-2.777344 8.59375-1.5 3.179688 1.414062 5.089844 4.839844 4.578125 8.289062-.5625 3.789063-3.902343 6.707032-7.75 6.707032zm0 0"/><path d="m88.605469 243.230469c-6.832031 0-10.378907-8.570313-5.539063-13.382813 2.425782-2.414062 6.214844-2.960937 9.230469-1.363281 2.957031 1.566406 4.59375 4.953125 4.027344 8.246094-.632813 3.699219-3.964844 6.5-7.71875 6.5zm0 0"/><path d="m351.914062 223.378906c-6.929687 0-10.425781-8.765625-5.398437-13.515625 2.632813-2.488281 6.730469-2.851562 9.753906-.839843 2.585938 1.71875 3.917969 4.921874 3.339844 7.96875-.691406 3.648437-3.96875 6.386718-7.695313 6.386718zm0 0"/><path d="m404.15625 182.628906c-6.9375 0-10.394531-8.757812-5.398438-13.515625 2.425782-2.3125 6.140626-2.796875 9.09375-1.230469 2.839844 1.503907 4.464844 4.683594 4.082032 7.867188-.46875 3.867188-3.878906 6.878906-7.777344 6.878906zm0 0"/><path d="m384.304688 302.789062c-6.710938 0-10.285157-8.25-5.753907-13.160156 2.296875-2.484375 6.050781-3.203125 9.101563-1.757812 3.035156 1.433594 4.824218 4.707031 4.425781 8.035156-.460937 3.871094-3.875 6.882812-7.773437 6.882812zm0 0"/><path d="m65.019531 317.417969c-3.308593 0-6.335937-2.171875-7.40625-5.292969-1.117187-3.253906.070313-6.976562 2.890625-8.953125 5.804688-4.066406 13.886719 1.414063 12.109375 8.332031-.882812 3.425782-4.046875 5.914063-7.59375 5.914063zm0 0"/></g></svg>